<svg width="32" height="32" viewBox="0 0 32 32" fill="none" xmlns="http://www.w3.org/2000/svg">
<path d="M5 13L5 19H6L6 13H5Z" fill="#FFD700"/>
<path d="M6 19V21H7V19H6Z" fill="#FFD700"/>
<path d="M7 21V23H8V21H7Z" fill="#FFD700"/>
<path d="M8 23V24H9V23H8Z" fill="#FFD700"/>
<path d="M9 24V25H11V24H9Z" fill="#FFD700"/>
<path d="M11 25V26H13V25H11Z" fill="#FFD700"/>
<path d="M27 13V19H26V13H27Z" fill="#FFD700"/>
<path d="M26 19V21H25V19H26Z" fill="#FFD700"/>
<path d="M25 21V23H24V21H25Z" fill="#FFD700"/>
<path d="M24 23V24H23V23H24Z" fill="#FFD700"/>
<path d="M23 24V25H21V24H23Z" fill="#FFD700"/>
<path d="M21 25V26H19V25H21Z" fill="#FFD700"/>
<path d="M13 26V27H19V26H13Z" fill="#FFD700"/>
<path d="M25 11V13H26V11H25Z" fill="#FFD700"/>
<path d="M24 9V11H25V9H24Z" fill="#FFD700"/>
<path d="M23 8V9H24V8H23Z" fill="#FFD700"/>
<path d="M22 7V8H23V7H22Z" fill="#FFD700"/>
<path d="M21 8V10H22V8H21Z" fill="#FFD700"/>
<path d="M20 10V12H21V10H20Z" fill="#FFD700"/>
<path d="M19 12V14H20V12H19Z" fill="#FFD700"/>
<path d="M14 7V9H13V7H14Z" fill="#FFD700"/>
<path d="M15 9V11H14V9H15Z" fill="#FFD700"/>
<path d="M16 11V13H15V11H16Z" fill="#FFD700"/>
<path d="M18 14V16H19V14H18Z" fill="#FFD700"/>
<path d="M17 15V17H18V15H17Z" fill="#FFD700"/>
<path d="M16 13V15H17V13H16Z" fill="#FFD700"/>
<path d="M11 6V7H13V6H11Z" fill="#FFD700"/>
<path d="M6 11V13H7V11H6Z" fill="#FFD700"/>
<path d="M7 9V11H8V9H7Z" fill="#FFD700"/>
<path d="M8 8V9H9V8H8Z" fill="#FFD700"/>
<path d="M9 7V8H11V7H9Z" fill="#FFD700"/>
<path d="M6 13L6 19H15V13H6Z" fill="#FFD700"/>
<path d="M8 19V23H24V19H8Z" fill="#FFD700"/>
<path d="M22 9V19H24V9H22Z" fill="#FFD700"/>
<path d="M11 23V25H22V23H11Z" fill="#FFD700"/>
<path d="M11 7V14H13V7H11Z" fill="#FFD700"/>
<path d="M7 11V13H11V11H7Z" fill="#FFD700"/>
<path d="M7 19V21H8V19H7Z" fill="#FFD700"/>
<path d="M9 23V24H11V23H9Z" fill="#FFD700"/>
<path d="M13 25V26H19V25H13Z" fill="#FFD700"/>
<path d="M22 23V24H23V23H22Z" fill="#FFD700"/>
<path d="M15 16V19H26V16H15Z" fill="#FFD700"/>
<path d="M24 11V21H25V11H24Z" fill="#FFD700"/>
<path d="M19 14V16H22V14H19Z" fill="#FFD700"/>
<path d="M20 12V14H22V12H20Z" fill="#FFD700"/>
<path d="M25 13V16H26V13H25Z" fill="#FFD700"/>
<path d="M13 9V14H14V9H13Z" fill="#FFD700"/>
<path d="M15 13V16H16V13H15Z" fill="#FFD700"/>
<path d="M14 11V13H15V11H14Z" fill="#FFD700"/>
<path d="M16 15V16H17V15H16Z" fill="#FFD700"/>
<path d="M21 10V12H22V10H21Z" fill="#FFD700"/>
<path d="M22 8V9H23V8H22Z" fill="#FFD700"/>
<path d="M8 8V11H11V8H8Z" fill="#FFD700"/>
</svg>
