<svg width="32" height="32" viewBox="0 0 32 32" fill="none" xmlns="http://www.w3.org/2000/svg">
<path d="M12 5H18V6H12V5Z" fill="#FFD700"/>
<path d="M18 6H20V7H18V6Z" fill="#FFD700"/>
<path d="M20 7H22V8H20V7Z" fill="#FFD700"/>
<path d="M22 8H23V9H22V8Z" fill="#FFD700"/>
<path d="M23 9H24V11H23V9Z" fill="#FFD700"/>
<path d="M24 11H25V13H24V11Z" fill="#FFD700"/>
<path d="M12 27H18V26H12V27Z" fill="#FFD700"/>
<path d="M18 26H20V25H18V26Z" fill="#FFD700"/>
<path d="M20 25H22V24H20V25Z" fill="#FFD700"/>
<path d="M22 24H23V23H22V24Z" fill="#FFD700"/>
<path d="M23 23H24V21H23V23Z" fill="#FFD700"/>
<path d="M24 21H25V19H24V21Z" fill="#FFD700"/>
<path d="M25 13H26V19H25V13Z" fill="#FFD700"/>
<path d="M10 25H12V26H10V25Z" fill="#FFD700"/>
<path d="M8 24H10V25H8V24Z" fill="#FFD700"/>
<path d="M7 23H8V24H7V23Z" fill="#FFD700"/>
<path d="M6 22H7V23H6V22Z" fill="#FFD700"/>
<path d="M7 21H9V22H7V21Z" fill="#FFD700"/>
<path d="M9 20H11V21H9V20Z" fill="#FFD700"/>
<path d="M11 19H13V20H11V19Z" fill="#FFD700"/>
<path d="M6 14H8V13H6V14Z" fill="#FFD700"/>
<path d="M8 15H10V14H8V15Z" fill="#FFD700"/>
<path d="M10 16H12V15H10V16Z" fill="#FFD700"/>
<path d="M13 18H15V19H13V18Z" fill="#FFD700"/>
<path d="M14 17H16V18H14V17Z" fill="#FFD700"/>
<path d="M12 16H14V17H12V16Z" fill="#FFD700"/>
<path d="M5 11H6V13H5V11Z" fill="#FFD700"/>
<path d="M10 6H12V7H10V6Z" fill="#FFD700"/>
<path d="M8 7H10V8H8V7Z" fill="#FFD700"/>
<path d="M7 8H8V9H7V8Z" fill="#FFD700"/>
<path d="M6 9H7V11H6V9Z" fill="#FFD700"/>
<path d="M12 6H18V15H12V6Z" fill="#FFD700"/>
<path d="M18 8H22V24H18V8Z" fill="#FFD700"/>
<path d="M8 22H18V24H8V22Z" fill="#FFD700"/>
<path d="M22 11H24V22H22V11Z" fill="#FFD700"/>
<path d="M6 11H13V13H6V11Z" fill="#FFD700"/>
<path d="M10 7H12V11H10V7Z" fill="#FFD700"/>
<path d="M18 7H20V8H18V7Z" fill="#FFD700"/>
<path d="M22 9H23V11H22V9Z" fill="#FFD700"/>
<path d="M24 13H25V19H24V13Z" fill="#FFD700"/>
<path d="M22 22H23V23H22V22Z" fill="#FFD700"/>
<path d="M15 15H18V26H15V15Z" fill="#FFD700"/>
<path d="M10 24H20V25H10V24Z" fill="#FFD700"/>
<path d="M13 19H15V22H13V19Z" fill="#FFD700"/>
<path d="M11 20H13V22H11V20Z" fill="#FFD700"/>
<path d="M12 25H15V26H12V25Z" fill="#FFD700"/>
<path d="M8 13H13V14H8V13Z" fill="#FFD700"/>
<path d="M12 15H15V16H12V15Z" fill="#FFD700"/>
<path d="M10 14H12V15H10V14Z" fill="#FFD700"/>
<path d="M14 16H15V17H14V16Z" fill="#FFD700"/>
<path d="M9 21H11V22H9V21Z" fill="#FFD700"/>
<path d="M7 22H8V23H7V22Z" fill="#FFD700"/>
<path d="M7 8H10V11H7V8Z" fill="#FFD700"/>
</svg>
