<svg width="32" height="32" viewBox="0 0 32 32" fill="none" xmlns="http://www.w3.org/2000/svg">
<path d="M19 5H13V6H19V5Z" fill="#FFD700"/>
<path d="M13 6H11V7H13V6Z" fill="#FFD700"/>
<path d="M11 7H9V8H11V7Z" fill="#FFD700"/>
<path d="M9 8H8V9H9V8Z" fill="#FFD700"/>
<path d="M8 9H7V11H8V9Z" fill="#FFD700"/>
<path d="M7 11H6V13H7V11Z" fill="#FFD700"/>
<path d="M19 27H13V26H19V27Z" fill="#FFD700"/>
<path d="M13 26H11V25H13V26Z" fill="#FFD700"/>
<path d="M11 25H9V24H11V25Z" fill="#FFD700"/>
<path d="M9 24H8V23H9V24Z" fill="#FFD700"/>
<path d="M8 23H7V21H8V23Z" fill="#FFD700"/>
<path d="M7 21H6V19H7V21Z" fill="#FFD700"/>
<path d="M6 13H5V19H6V13Z" fill="#FFD700"/>
<path d="M21 25H19V26H21V25Z" fill="#FFD700"/>
<path d="M23 24H21V25H23V24Z" fill="#FFD700"/>
<path d="M24 23H23V24H24V23Z" fill="#FFD700"/>
<path d="M25 22H24V23H25V22Z" fill="#FFD700"/>
<path d="M24 21H22V22H24V21Z" fill="#FFD700"/>
<path d="M22 20H20V21H22V20Z" fill="#FFD700"/>
<path d="M20 19H18V20H20V19Z" fill="#FFD700"/>
<path d="M25 14H23V13H25V14Z" fill="#FFD700"/>
<path d="M23 15H21V14H23V15Z" fill="#FFD700"/>
<path d="M21 16H19V15H21V16Z" fill="#FFD700"/>
<path d="M18 18H16V19H18V18Z" fill="#FFD700"/>
<path d="M17 17H15V18H17V17Z" fill="#FFD700"/>
<path d="M19 16H17V17H19V16Z" fill="#FFD700"/>
<path d="M26 11H25V13H26V11Z" fill="#FFD700"/>
<path d="M21 6H19V7H21V6Z" fill="#FFD700"/>
<path d="M23 7H21V8H23V7Z" fill="#FFD700"/>
<path d="M24 8H23V9H24V8Z" fill="#FFD700"/>
<path d="M25 9H24V11H25V9Z" fill="#FFD700"/>
<path d="M19 6H13V15H19V6Z" fill="#FFD700"/>
<path d="M13 8H9V24H13V8Z" fill="#FFD700"/>
<path d="M23 22H13V24H23V22Z" fill="#FFD700"/>
<path d="M9 11H7V22H9V11Z" fill="#FFD700"/>
<path d="M25 11H18V13H25V11Z" fill="#FFD700"/>
<path d="M21 7H19V11H21V7Z" fill="#FFD700"/>
<path d="M13 7H11V8H13V7Z" fill="#FFD700"/>
<path d="M9 9H8V11H9V9Z" fill="#FFD700"/>
<path d="M7 13H6V19H7V13Z" fill="#FFD700"/>
<path d="M9 22H8V23H9V22Z" fill="#FFD700"/>
<path d="M16 15H13V26H16V15Z" fill="#FFD700"/>
<path d="M21 24H11V25H21V24Z" fill="#FFD700"/>
<path d="M18 19H16V22H18V19Z" fill="#FFD700"/>
<path d="M20 20H18V22H20V20Z" fill="#FFD700"/>
<path d="M19 25H16V26H19V25Z" fill="#FFD700"/>
<path d="M23 13H18V14H23V13Z" fill="#FFD700"/>
<path d="M19 15H16V16H19V15Z" fill="#FFD700"/>
<path d="M21 14H19V15H21V14Z" fill="#FFD700"/>
<path d="M17 16H16V17H17V16Z" fill="#FFD700"/>
<path d="M22 21H20V22H22V21Z" fill="#FFD700"/>
<path d="M24 22H23V23H24V22Z" fill="#FFD700"/>
<path d="M24 8H21V11H24V8Z" fill="#FFD700"/>
</svg>
