<svg width="32" height="32" viewBox="0 0 32 32" fill="none" xmlns="http://www.w3.org/2000/svg">
<rect x="13" y="5" width="6" height="1" fill="#FFD700"/>
<rect x="11" y="6" width="2" height="1" fill="#FFD700"/>
<rect x="9" y="7" width="2" height="1" fill="#FFD700"/>
<rect x="8" y="8" width="1" height="1" fill="#FFD700"/>
<rect x="7" y="9" width="1" height="2" fill="#FFD700"/>
<rect x="6" y="11" width="1" height="2" fill="#FFD700"/>
<rect width="6" height="1" transform="matrix(1 0 0 -1 13 27)" fill="#FFD700"/>
<rect width="2" height="1" transform="matrix(1 0 0 -1 11 26)" fill="#FFD700"/>
<rect width="2" height="1" transform="matrix(1 0 0 -1 9 25)" fill="#FFD700"/>
<rect width="1" height="1" transform="matrix(1 0 0 -1 8 24)" fill="#FFD700"/>
<rect width="1" height="2" transform="matrix(1 0 0 -1 7 23)" fill="#FFD700"/>
<rect width="1" height="2" transform="matrix(1 0 0 -1 6 21)" fill="#FFD700"/>
<rect x="5" y="13" width="1" height="6" fill="#FFD700"/>
<rect x="19" y="25" width="2" height="1" fill="#FFD700"/>
<rect x="21" y="24" width="2" height="1" fill="#FFD700"/>
<rect x="23" y="23" width="1" height="1" fill="#FFD700"/>
<rect x="24" y="22" width="1" height="1" fill="#FFD700"/>
<rect x="22" y="21" width="2" height="1" fill="#FFD700"/>
<rect x="20" y="20" width="2" height="1" fill="#FFD700"/>
<rect x="18" y="19" width="2" height="1" fill="#FFD700"/>
<rect width="2" height="1" transform="matrix(1 0 0 -1 23 14)" fill="#FFD700"/>
<rect width="2" height="1" transform="matrix(1 0 0 -1 21 15)" fill="#FFD700"/>
<rect width="2" height="1" transform="matrix(1 0 0 -1 19 16)" fill="#FFD700"/>
<rect x="16" y="18" width="2" height="1" fill="#FFD700"/>
<rect x="15" y="17" width="2" height="1" fill="#FFD700"/>
<rect x="17" y="16" width="2" height="1" fill="#FFD700"/>
<rect x="25" y="11" width="1" height="2" fill="#FFD700"/>
<rect x="19" y="6" width="2" height="1" fill="#FFD700"/>
<rect x="21" y="7" width="2" height="1" fill="#FFD700"/>
<rect x="23" y="8" width="1" height="1" fill="#FFD700"/>
<rect x="24" y="9" width="1" height="2" fill="#FFD700"/>
<rect x="13" y="6" width="6" height="9" fill="#FFD700"/>
<rect x="9" y="8" width="4" height="16" fill="#FFD700"/>
<rect x="13" y="22" width="10" height="2" fill="#FFD700"/>
<rect x="7" y="11" width="2" height="11" fill="#FFD700"/>
<rect x="18" y="11" width="7" height="2" fill="#FFD700"/>
<rect x="19" y="7" width="2" height="4" fill="#FFD700"/>
<rect x="11" y="7" width="2" height="1" fill="#FFD700"/>
<rect x="8" y="9" width="1" height="2" fill="#FFD700"/>
<rect x="6" y="13" width="1" height="6" fill="#FFD700"/>
<rect x="8" y="22" width="1" height="1" fill="#FFD700"/>
<rect x="13" y="15" width="3" height="11" fill="#FFD700"/>
<rect x="11" y="24" width="10" height="1" fill="#FFD700"/>
<rect x="16" y="19" width="2" height="3" fill="#FFD700"/>
<rect x="18" y="20" width="2" height="2" fill="#FFD700"/>
<rect x="16" y="25" width="3" height="1" fill="#FFD700"/>
<rect x="18" y="13" width="5" height="1" fill="#FFD700"/>
<rect x="16" y="15" width="3" height="1" fill="#FFD700"/>
<rect x="19" y="14" width="2" height="1" fill="#FFD700"/>
<rect x="16" y="16" width="1" height="1" fill="#FFD700"/>
<rect x="20" y="21" width="2" height="1" fill="#FFD700"/>
<rect x="23" y="22" width="1" height="1" fill="#FFD700"/>
<rect x="21" y="8" width="3" height="3" fill="#FFD700"/>
</svg>
