<svg width="21" height="22" viewBox="0 0 21 22" fill="none" xmlns="http://www.w3.org/2000/svg">
<path d="M14 0H8V1H14V0Z" fill="#FFD700"/>
<path d="M8 1H6V2H8V1Z" fill="#FFD700"/>
<path d="M6 2H4V3H6V2Z" fill="#FFD700"/>
<path d="M4 3H3V4H4V3Z" fill="#FFD700"/>
<path d="M3 4H2V6H3V4Z" fill="#FFD700"/>
<path d="M2 6H1V8H2V6Z" fill="#FFD700"/>
<path d="M14 22H8V21H14V22Z" fill="#FFD700"/>
<path d="M8 21H6V20H8V21Z" fill="#FFD700"/>
<path d="M6 20H4V19H6V20Z" fill="#FFD700"/>
<path d="M4 19H3V18H4V19Z" fill="#FFD700"/>
<path d="M3 18H2V16H3V18Z" fill="#FFD700"/>
<path d="M2 16H1V14H2V16Z" fill="#FFD700"/>
<path d="M1 8H0V14H1V8Z" fill="#FFD700"/>
<path d="M16 20H14V21H16V20Z" fill="#FFD700"/>
<path d="M18 19H16V20H18V19Z" fill="#FFD700"/>
<path d="M19 18H18V19H19V18Z" fill="#FFD700"/>
<path d="M20 17H19V18H20V17Z" fill="#FFD700"/>
<path d="M19 16H17V17H19V16Z" fill="#FFD700"/>
<path d="M17 15H15V16H17V15Z" fill="#FFD700"/>
<path d="M15 14H13V15H15V14Z" fill="#FFD700"/>
<path d="M20 9H18V8H20V9Z" fill="#FFD700"/>
<path d="M18 10H16V9H18V10Z" fill="#FFD700"/>
<path d="M16 11H14V10H16V11Z" fill="#FFD700"/>
<path d="M13 13H11V14H13V13Z" fill="#FFD700"/>
<path d="M12 12H10V13H12V12Z" fill="#FFD700"/>
<path d="M14 11H12V12H14V11Z" fill="#FFD700"/>
<path d="M21 6H20V8H21V6Z" fill="#FFD700"/>
<path d="M16 1H14V2H16V1Z" fill="#FFD700"/>
<path d="M18 2H16V3H18V2Z" fill="#FFD700"/>
<path d="M19 3H18V4H19V3Z" fill="#FFD700"/>
<path d="M20 4H19V6H20V4Z" fill="#FFD700"/>
<path d="M14 1H8V10H14V1Z" fill="#FFD700"/>
<path d="M8 3H4V19H8V3Z" fill="#FFD700"/>
<path d="M18 17H8V19H18V17Z" fill="#FFD700"/>
<path d="M4 6H2V17H4V6Z" fill="#FFD700"/>
<path d="M20 6H13V8H20V6Z" fill="#FFD700"/>
<path d="M16 2H14V6H16V2Z" fill="#FFD700"/>
<path d="M8 2H6V3H8V2Z" fill="#FFD700"/>
<path d="M4 4H3V6H4V4Z" fill="#FFD700"/>
<path d="M2 8H1V14H2V8Z" fill="#FFD700"/>
<path d="M4 17H3V18H4V17Z" fill="#FFD700"/>
<path d="M11 10H8V21H11V10Z" fill="#FFD700"/>
<path d="M16 19H6V20H16V19Z" fill="#FFD700"/>
<path d="M13 14H11V17H13V14Z" fill="#FFD700"/>
<path d="M15 15H13V17H15V15Z" fill="#FFD700"/>
<path d="M14 20H11V21H14V20Z" fill="#FFD700"/>
<path d="M18 8H13V9H18V8Z" fill="#FFD700"/>
<path d="M14 10H11V11H14V10Z" fill="#FFD700"/>
<path d="M16 9H14V10H16V9Z" fill="#FFD700"/>
<path d="M12 11H11V12H12V11Z" fill="#FFD700"/>
<path d="M17 16H15V17H17V16Z" fill="#FFD700"/>
<path d="M19 17H18V18H19V17Z" fill="#FFD700"/>
<path d="M19 3H16V6H19V3Z" fill="#FFD700"/>
</svg>
